# xmcd CD database file
#
# Track frame offsets:
#	150
#	19383
#	35314
#	59108
#	76133
#	97079
#	118669
#	149558
#	165018
#	182139
#	197658
#	220547
#	245442
#
# Disc length: 3704 seconds
#
# Revision: 0
# Processed by: cddbd v1.5.2PL0 Copyright (c) Steve Scherf et al.
# Submitted via: CDex 1.51
#
DISCID=b20e760d
DTITLE=Various Artist - Your Guide To The 38th North Sea Jazz Festival
DYEAR=2012
DGENRE=Jazz
TTITLE0=Melody Gardot - Mira
TTITLE1=Michael Kiwanuka - Home Again
TTITLE2=Esperanza Spalding - Black Gold
TTITLE3=Rufus Wainwright - Out Of The Game
TTITLE4=Trombone Shorty - Do To Me
TTITLE5=Kurt Elling - Steppin' Out
TTITLE6=James Carter Organ Trio - Oh Gee
TTITLE7=James Morrison - Slave To The Music
TTITLE8=Bernhoft - Choices (Edit)
TTITLE9=Waylon - Lose It
TTITLE10=Christian Scott, David Sanchez and Stefon Harris - Nengueleru
TTITLE11=John Scofield- Simply Put
TTITLE12=Iain Matthews and Egbert Derix - Restless Wings
EXTD=YEAR: 2012
EXTT0=
EXTT1=
EXTT2=
EXTT3=
EXTT4=
EXTT5=
EXTT6=
EXTT7=
EXTT8=
EXTT9=
EXTT10=
EXTT11=
EXTT12=
PLAYORDER=
